<mxfile>
    <diagram id="mUjmWHGFQMiFrkBGvBQy" name="Page-1">
        <mxGraphModel dx="825" dy="479" grid="1" gridSize="10" guides="1" tooltips="1" connect="1" arrows="1" fold="1" page="1" pageScale="1" pageWidth="827" pageHeight="1169" background="#ffffff" math="0" shadow="0">
            <root>
                <mxCell id="0"/>
                <mxCell id="1" parent="0"/>
                <mxCell id="2" value="&lt;font color=&quot;#1c1c1c&quot;&gt;customer&lt;/font&gt;" style="rounded=0;whiteSpace=wrap;html=1;strokeColor=#1C1C1C;fillColor=#FFFFFF;" vertex="1" parent="1">
                    <mxGeometry x="174" y="50" width="60" height="20" as="geometry"/>
                </mxCell>
                <mxCell id="3" value="&lt;font color=&quot;#1c1c1c&quot;&gt;terminal&lt;/font&gt;" style="rounded=0;whiteSpace=wrap;html=1;strokeColor=#1C1C1C;fillColor=#FFFFFF;" vertex="1" parent="1">
                    <mxGeometry x="470" y="50" width="50" height="20" as="geometry"/>
                </mxCell>
                <mxCell id="7" value="" style="endArrow=none;dashed=1;html=1;strokeColor=#1C1C1C;strokeWidth=2;entryX=0.5;entryY=1;entryDx=0;entryDy=0;" edge="1" parent="1" target="2">
                    <mxGeometry width="50" height="50" relative="1" as="geometry">
                        <mxPoint x="205" y="170" as="sourcePoint"/>
                        <mxPoint x="420" y="160" as="targetPoint"/>
                    </mxGeometry>
                </mxCell>
                <mxCell id="8" value="" style="endArrow=none;dashed=1;html=1;strokeColor=#1C1C1C;strokeWidth=2;entryX=0.5;entryY=1;entryDx=0;entryDy=0;" edge="1" parent="1" source="9">
                    <mxGeometry width="50" height="50" relative="1" as="geometry">
                        <mxPoint x="494.58" y="270" as="sourcePoint"/>
                        <mxPoint x="494.58" y="70" as="targetPoint"/>
                    </mxGeometry>
                </mxCell>
                <mxCell id="9" value="" style="rounded=0;whiteSpace=wrap;html=1;strokeColor=#1C1C1C;fillColor=#FFFFFF;rotation=90;" vertex="1" parent="1">
                    <mxGeometry x="470" y="120" width="50" height="10" as="geometry"/>
                </mxCell>
                <mxCell id="12" value="" style="endArrow=none;dashed=1;html=1;strokeColor=#1C1C1C;strokeWidth=2;entryX=1;entryY=0.6;entryDx=0;entryDy=0;entryPerimeter=0;" edge="1" parent="1" target="9">
                    <mxGeometry width="50" height="50" relative="1" as="geometry">
                        <mxPoint x="494" y="170" as="sourcePoint"/>
                        <mxPoint x="490" y="150" as="targetPoint"/>
                    </mxGeometry>
                </mxCell>
                <mxCell id="15" value="1.control air conditioner(temprature,mode,pattern):" style="endArrow=classic;html=1;strokeColor=#1C1C1C;strokeWidth=1;fontColor=#000000;labelBackgroundColor=none;" edge="1" parent="1">
                    <mxGeometry x="-0.0714" y="10" width="50" height="50" relative="1" as="geometry">
                        <mxPoint x="210" y="100" as="sourcePoint"/>
                        <mxPoint x="490" y="100" as="targetPoint"/>
                        <mxPoint as="offset"/>
                    </mxGeometry>
                </mxCell>
                <mxCell id="17" value="" style="endArrow=classic;html=1;strokeColor=#1C1C1C;strokeWidth=1;" edge="1" parent="1">
                    <mxGeometry width="50" height="50" relative="1" as="geometry">
                        <mxPoint x="490" y="150" as="sourcePoint"/>
                        <mxPoint x="210" y="150" as="targetPoint"/>
                    </mxGeometry>
                </mxCell>
                <mxCell id="21" value="《return》&lt;br&gt;2、the result of operation" style="edgeLabel;html=1;align=center;verticalAlign=middle;resizable=0;points=[];fontColor=#000000;labelBackgroundColor=none;" vertex="1" connectable="0" parent="17">
                    <mxGeometry x="0.1393" y="-1" relative="1" as="geometry">
                        <mxPoint x="9.17" y="-13" as="offset"/>
                    </mxGeometry>
                </mxCell>
                <mxCell id="22" value="&lt;font color=&quot;#1c1c1c&quot;&gt;customer&lt;/font&gt;" style="rounded=0;whiteSpace=wrap;html=1;strokeColor=#1C1C1C;fillColor=#FFFFFF;" vertex="1" parent="1">
                    <mxGeometry x="174" y="210" width="60" height="20" as="geometry"/>
                </mxCell>
                <mxCell id="23" value="&lt;font color=&quot;#1c1c1c&quot;&gt;terminal&lt;/font&gt;" style="rounded=0;whiteSpace=wrap;html=1;strokeColor=#1C1C1C;fillColor=#FFFFFF;" vertex="1" parent="1">
                    <mxGeometry x="470" y="210" width="50" height="20" as="geometry"/>
                </mxCell>
                <mxCell id="24" value="" style="endArrow=none;dashed=1;html=1;strokeColor=#1C1C1C;strokeWidth=2;entryX=0.5;entryY=1;entryDx=0;entryDy=0;" edge="1" parent="1" target="22">
                    <mxGeometry width="50" height="50" relative="1" as="geometry">
                        <mxPoint x="205" y="330" as="sourcePoint"/>
                        <mxPoint x="420" y="320" as="targetPoint"/>
                    </mxGeometry>
                </mxCell>
                <mxCell id="25" value="" style="endArrow=none;dashed=1;html=1;strokeColor=#1C1C1C;strokeWidth=2;entryX=0.5;entryY=1;entryDx=0;entryDy=0;" edge="1" parent="1" source="26">
                    <mxGeometry width="50" height="50" relative="1" as="geometry">
                        <mxPoint x="494.58" y="430" as="sourcePoint"/>
                        <mxPoint x="494.5799999999999" y="230" as="targetPoint"/>
                    </mxGeometry>
                </mxCell>
                <mxCell id="26" value="" style="rounded=0;whiteSpace=wrap;html=1;strokeColor=#1C1C1C;fillColor=#FFFFFF;rotation=90;" vertex="1" parent="1">
                    <mxGeometry x="470" y="280" width="50" height="10" as="geometry"/>
                </mxCell>
                <mxCell id="27" value="" style="endArrow=none;dashed=1;html=1;strokeColor=#1C1C1C;strokeWidth=2;entryX=1;entryY=0.6;entryDx=0;entryDy=0;entryPerimeter=0;" edge="1" parent="1" target="26">
                    <mxGeometry width="50" height="50" relative="1" as="geometry">
                        <mxPoint x="494" y="330" as="sourcePoint"/>
                        <mxPoint x="490" y="310" as="targetPoint"/>
                    </mxGeometry>
                </mxCell>
                <mxCell id="28" value="1.get the cost():" style="endArrow=classic;html=1;strokeColor=#1C1C1C;strokeWidth=1;fontColor=#000000;labelBackgroundColor=none;" edge="1" parent="1">
                    <mxGeometry x="-0.0714" y="10" width="50" height="50" relative="1" as="geometry">
                        <mxPoint x="210" y="260" as="sourcePoint"/>
                        <mxPoint x="490" y="260" as="targetPoint"/>
                        <mxPoint as="offset"/>
                    </mxGeometry>
                </mxCell>
                <mxCell id="29" value="" style="endArrow=classic;html=1;strokeColor=#1C1C1C;strokeWidth=1;" edge="1" parent="1">
                    <mxGeometry width="50" height="50" relative="1" as="geometry">
                        <mxPoint x="490" y="310" as="sourcePoint"/>
                        <mxPoint x="210" y="310" as="targetPoint"/>
                    </mxGeometry>
                </mxCell>
                <mxCell id="30" value="《return》&lt;br&gt;2、the cost right now" style="edgeLabel;html=1;align=center;verticalAlign=middle;resizable=0;points=[];fontColor=#000000;labelBackgroundColor=none;" vertex="1" connectable="0" parent="29">
                    <mxGeometry x="0.1393" y="-1" relative="1" as="geometry">
                        <mxPoint x="9.17" y="-13" as="offset"/>
                    </mxGeometry>
                </mxCell>
                <mxCell id="32" value="控制空调" style="text;html=1;strokeColor=none;fillColor=none;align=center;verticalAlign=middle;whiteSpace=wrap;rounded=0;labelBackgroundColor=none;fontColor=#000000;" vertex="1" parent="1">
                    <mxGeometry x="310" y="170" width="60" height="20" as="geometry"/>
                </mxCell>
                <mxCell id="33" value="查看金额" style="text;html=1;strokeColor=none;fillColor=none;align=center;verticalAlign=middle;whiteSpace=wrap;rounded=0;labelBackgroundColor=none;fontColor=#000000;" vertex="1" parent="1">
                    <mxGeometry x="310" y="330" width="60" height="20" as="geometry"/>
                </mxCell>
            </root>
        </mxGraphModel>
    </diagram>
</mxfile>